<svg xmlns="http://www.w3.org/2000/svg" viewBox="0 0 1200 820" role="img" aria-label="AI portfolio website and coding workflow illustration">
  <defs>
    <linearGradient id="bg" x1="0" y1="0" x2="1" y2="1">
      <stop offset="0" stop-color="#050914"/>
      <stop offset="0.5" stop-color="#0a1b31"/>
      <stop offset="1" stop-color="#11263d"/>
    </linearGradient>
    <linearGradient id="accent" x1="0" y1="0" x2="1" y2="1">
      <stop offset="0" stop-color="#38bdf8"/>
      <stop offset="1" stop-color="#2dd4bf"/>
    </linearGradient>
    <radialGradient id="halo" cx="68%" cy="24%" r="52%">
      <stop offset="0" stop-color="#38bdf8" stop-opacity="0.48"/>
      <stop offset="0.6" stop-color="#38bdf8" stop-opacity="0.1"/>
      <stop offset="1" stop-color="#38bdf8" stop-opacity="0"/>
    </radialGradient>
    <filter id="shadow" x="-20%" y="-20%" width="140%" height="140%">
      <feDropShadow dx="0" dy="26" stdDeviation="26" flood-color="#020617" flood-opacity="0.45"/>
    </filter>
  </defs>
  <rect width="1200" height="820" fill="url(#bg)"/>
  <rect width="1200" height="820" fill="url(#halo)"/>
  <g opacity="0.18" stroke="#cbd5e1" stroke-width="1">
    <path d="M0 120H1200M0 240H1200M0 360H1200M0 480H1200M0 600H1200M0 720H1200"/>
    <path d="M120 0V820M240 0V820M360 0V820M480 0V820M600 0V820M720 0V820M840 0V820M960 0V820M1080 0V820"/>
  </g>
  <g filter="url(#shadow)">
    <rect x="122" y="122" width="650" height="460" rx="38" fill="#071827" stroke="#38bdf8" stroke-opacity="0.32"/>
    <rect x="122" y="122" width="650" height="74" rx="38" fill="#10243a"/>
    <circle cx="168" cy="160" r="9" fill="#38bdf8"/>
    <circle cx="200" cy="160" r="9" fill="#2dd4bf"/>
    <circle cx="232" cy="160" r="9" fill="#f59e0b"/>
    <rect x="172" y="246" width="236" height="54" rx="18" fill="url(#accent)" opacity="0.95"/>
    <text x="198" y="283" fill="#04111f" font-family="Segoe UI,Arial,sans-serif" font-size="28" font-weight="900">AI Portfolio</text>
    <rect x="172" y="334" width="500" height="18" rx="9" fill="#7dd3fc" opacity="0.72"/>
    <rect x="172" y="374" width="420" height="18" rx="9" fill="#2dd4bf" opacity="0.62"/>
    <rect x="172" y="432" width="138" height="82" rx="22" fill="#10243a" stroke="#38bdf8" stroke-opacity="0.34"/>
    <rect x="346" y="432" width="138" height="82" rx="22" fill="#10243a" stroke="#38bdf8" stroke-opacity="0.34"/>
    <rect x="520" y="432" width="138" height="82" rx="22" fill="#10243a" stroke="#38bdf8" stroke-opacity="0.34"/>
    <path d="M198 472h82M372 472h82M546 472h82" stroke="#38bdf8" stroke-width="10" stroke-linecap="round"/>
  </g>
  <g filter="url(#shadow)">
    <rect x="690" y="306" width="378" height="350" rx="34" fill="#081728" stroke="#2dd4bf" stroke-opacity="0.36"/>
    <text x="736" y="374" fill="#e0f2fe" font-family="Consolas,Menlo,monospace" font-size="30" font-weight="700">&lt;/&gt;</text>
    <rect x="736" y="414" width="258" height="16" rx="8" fill="#38bdf8" opacity="0.78"/>
    <rect x="736" y="454" width="198" height="16" rx="8" fill="#2dd4bf" opacity="0.7"/>
    <rect x="736" y="494" width="284" height="16" rx="8" fill="#7dd3fc" opacity="0.55"/>
    <rect x="736" y="556" width="122" height="52" rx="18" fill="url(#accent)"/>
    <text x="763" y="590" fill="#04111f" font-family="Segoe UI,Arial,sans-serif" font-size="24" font-weight="900">Deploy</text>
  </g>
  <g fill="none" stroke="url(#accent)" stroke-width="8" stroke-linecap="round" stroke-linejoin="round" opacity="0.85">
    <path d="M728 245C806 248 818 284 818 332"/>
    <path d="M798 316l20 24 24-22"/>
    <path d="M598 610C650 662 738 694 836 656"/>
  </g>
  <g opacity="0.9">
    <circle cx="918" cy="176" r="82" fill="#0f2a40" stroke="#38bdf8" stroke-opacity="0.35" stroke-width="2"/>
    <path d="M872 176h92M918 130v92" stroke="#38bdf8" stroke-width="12" stroke-linecap="round"/>
    <circle cx="918" cy="176" r="28" fill="url(#accent)"/>
    <text x="894" y="186" fill="#04111f" font-family="Segoe UI,Arial,sans-serif" font-size="25" font-weight="900">AI</text>
  </g>
</svg>
