<svg xmlns="http://www.w3.org/2000/svg" viewBox="0 0 1200 820" role="img" aria-label="Industrial software and AI workflow illustration">
  <defs>
    <linearGradient id="bg" x1="0" y1="0" x2="1" y2="1">
      <stop offset="0" stop-color="#07111f"/>
      <stop offset="0.48" stop-color="#0b1b32"/>
      <stop offset="1" stop-color="#0f293f"/>
    </linearGradient>
    <linearGradient id="cyan" x1="0" y1="0" x2="1" y2="1">
      <stop offset="0" stop-color="#38bdf8"/>
      <stop offset="1" stop-color="#2dd4bf"/>
    </linearGradient>
    <radialGradient id="glow" cx="55%" cy="34%" r="55%">
      <stop offset="0" stop-color="#38bdf8" stop-opacity="0.45"/>
      <stop offset="0.52" stop-color="#38bdf8" stop-opacity="0.12"/>
      <stop offset="1" stop-color="#38bdf8" stop-opacity="0"/>
    </radialGradient>
    <filter id="shadow" x="-20%" y="-20%" width="140%" height="140%">
      <feDropShadow dx="0" dy="22" stdDeviation="24" flood-color="#020617" flood-opacity="0.45"/>
    </filter>
  </defs>
  <rect width="1200" height="820" fill="url(#bg)"/>
  <rect width="1200" height="820" fill="url(#glow)"/>
  <g opacity="0.16" stroke="#e2e8f0" stroke-width="1">
    <path d="M0 110H1200M0 220H1200M0 330H1200M0 440H1200M0 550H1200M0 660H1200M0 770H1200"/>
    <path d="M110 0V820M220 0V820M330 0V820M440 0V820M550 0V820M660 0V820M770 0V820M880 0V820M990 0V820M1100 0V820"/>
  </g>
  <g filter="url(#shadow)">
    <rect x="90" y="108" width="500" height="330" rx="34" fill="#081728" stroke="#38bdf8" stroke-opacity="0.32"/>
    <rect x="126" y="150" width="428" height="48" rx="16" fill="#10243a"/>
    <circle cx="156" cy="174" r="8" fill="#38bdf8"/>
    <circle cx="184" cy="174" r="8" fill="#2dd4bf"/>
    <circle cx="212" cy="174" r="8" fill="#f59e0b"/>
    <rect x="130" y="235" width="110" height="118" rx="16" fill="#0f2a40" stroke="#38bdf8" stroke-opacity="0.3"/>
    <rect x="274" y="235" width="110" height="118" rx="16" fill="#0f2a40" stroke="#38bdf8" stroke-opacity="0.3"/>
    <rect x="418" y="235" width="110" height="118" rx="16" fill="#0f2a40" stroke="#38bdf8" stroke-opacity="0.3"/>
    <path d="M151 324h68M295 324h68M439 324h68" stroke="#38bdf8" stroke-width="10" stroke-linecap="round"/>
    <path d="M151 294h42M295 294h54M439 294h36" stroke="#2dd4bf" stroke-width="10" stroke-linecap="round"/>
    <text x="148" y="274" fill="#e0f2fe" font-family="Segoe UI,Arial,sans-serif" font-size="30" font-weight="700">PLC</text>
    <text x="292" y="274" fill="#e0f2fe" font-family="Segoe UI,Arial,sans-serif" font-size="30" font-weight="700">HMI</text>
    <text x="436" y="274" fill="#e0f2fe" font-family="Segoe UI,Arial,sans-serif" font-size="30" font-weight="700">DATA</text>
  </g>
  <g filter="url(#shadow)">
    <rect x="642" y="156" width="440" height="380" rx="36" fill="#071827" stroke="#2dd4bf" stroke-opacity="0.34"/>
    <rect x="688" y="205" width="346" height="34" rx="17" fill="#12304a"/>
    <rect x="688" y="268" width="240" height="18" rx="9" fill="#38bdf8" opacity="0.82"/>
    <rect x="688" y="312" width="308" height="18" rx="9" fill="#2dd4bf" opacity="0.7"/>
    <rect x="688" y="356" width="198" height="18" rx="9" fill="#7dd3fc" opacity="0.64"/>
    <rect x="688" y="426" width="132" height="58" rx="20" fill="url(#cyan)" opacity="0.96"/>
    <text x="722" y="464" fill="#04111f" font-family="Segoe UI,Arial,sans-serif" font-size="28" font-weight="900">AI</text>
    <rect x="850" y="426" width="146" height="58" rx="20" fill="#10243a" stroke="#38bdf8" stroke-opacity="0.42"/>
    <text x="888" y="464" fill="#e0f2fe" font-family="Segoe UI,Arial,sans-serif" font-size="24" font-weight="800">API</text>
  </g>
  <g fill="none" stroke="url(#cyan)" stroke-width="8" stroke-linecap="round" stroke-linejoin="round" opacity="0.82">
    <path d="M518 398C608 408 608 344 690 344"/>
    <path d="M676 324l24 20-24 22"/>
  </g>
  <g opacity="0.9">
    <circle cx="244" cy="610" r="58" fill="#0f2a40" stroke="#38bdf8" stroke-opacity="0.36" stroke-width="2"/>
    <circle cx="244" cy="610" r="22" fill="url(#cyan)"/>
    <path d="M244 552v-42M244 710v-42M302 610h42M144 610h42M285 569l30-30M173 681l30-30M285 651l30 30M173 539l30 30" stroke="#38bdf8" stroke-width="10" stroke-linecap="round"/>
    <rect x="410" y="590" width="355" height="74" rx="22" fill="#081728" stroke="#38bdf8" stroke-opacity="0.28"/>
    <path d="M448 627h92M572 627h132" stroke="#7dd3fc" stroke-width="12" stroke-linecap="round"/>
    <circle cx="842" cy="626" r="46" fill="#0f2a40" stroke="#2dd4bf" stroke-opacity="0.4"/>
    <path d="M822 626l16 16 30-34" fill="none" stroke="#2dd4bf" stroke-width="12" stroke-linecap="round" stroke-linejoin="round"/>
  </g>
</svg>
